<?xml version="1.0" encoding="UTF-8" standalone="no"?>
<svg
   xmlns:dc="http://purl.org/dc/elements/1.1/"
   xmlns:cc="http://creativecommons.org/ns#"
   xmlns:rdf="http://www.w3.org/1999/02/22-rdf-syntax-ns#"
   xmlns:svg="http://www.w3.org/2000/svg"
   xmlns="http://www.w3.org/2000/svg"
   xmlns:sodipodi="http://sodipodi.sourceforge.net/DTD/sodipodi-0.dtd"
   xmlns:inkscape="http://www.inkscape.org/namespaces/inkscape"
   viewBox="0 0 544.27734 234.24252"
   height="234.24252"
   width="544.27734"
   xml:space="preserve"
   version="1.1"
   id="svg2"
   inkscape:version="0.48.2 r9819"
   sodipodi:docname="logo.svg"><sodipodi:namedview
     pagecolor="#ffffff"
     bordercolor="#666666"
     borderopacity="1"
     objecttolerance="10"
     gridtolerance="10"
     guidetolerance="10"
     inkscape:pageopacity="0"
     inkscape:pageshadow="2"
     inkscape:window-width="640"
     inkscape:window-height="480"
     id="namedview3238"
     showgrid="false"
     fit-margin-top="0"
     fit-margin-left="0"
     fit-margin-right="0"
     fit-margin-bottom="0"
     inkscape:zoom="0.71240902"
     inkscape:cx="272.14001"
     inkscape:cy="72.763874"
     inkscape:window-x="0"
     inkscape:window-y="0"
     inkscape:window-maximized="0"
     inkscape:current-layer="svg2" /><metadata
     id="metadata8"><rdf:RDF><cc:Work
         rdf:about=""><dc:format>image/svg+xml</dc:format><dc:type
           rdf:resource="http://purl.org/dc/dcmitype/StillImage" /></cc:Work></rdf:RDF></metadata><defs
     id="defs6" /><g
     transform="matrix(1.3333333,0,0,-1.3333333,0,322.95866)"
     id="g10"><g
       transform="scale(0.1,0.1)"
       id="g12"><path
         id="path26"
         style="fill:#231f20;fill-opacity:1;fill-rule:nonzero;stroke:none"
         d="M 4082.08,1082.08 C 4082.08,1170.78 4059.54,1175.35 4059.54,1175.35 3869.42,1120.72 3540.96,1111.66 3540.96,1111.66 L 868.805,1111.66 C 479.457,1111.66 504.109,1126.42 504.109,1126.42 464.684,1220.07 566.918,1328.48 566.918,1328.48 L 538.617,1353.14 C 242.91,1284.14 0,1082.08 0,1082.08 L 0,1077.15 C 0,1077.15 242.91,875.078 538.617,806.07 L 566.918,830.719 C 566.918,830.719 464.684,939.16 504.109,1032.79 504.109,1032.79 479.457,1047.58 868.805,1047.58 L 3540.96,1047.58 C 3540.96,1047.58 3869.42,1038.5 4059.54,983.898 4059.54,983.898 4082.08,988.422 4082.08,1077.15 L 4082.08,1082.08"
         inkscape:connector-curvature="0" /><path
         id="path28"
         style="fill:#231f20;fill-opacity:1;fill-rule:nonzero;stroke:none"
         d="M 2041.04,2422.19 C 1812.1,2422.19 1626.49,2236.6 1626.49,2007.66 1626.49,1829.42 1738.99,1677.46 1896.85,1618.9 1896.85,1618.9 1874.46,1577.34 1906.34,1551.82 L 1950.97,1519.93 C 1950.97,1519.93 1931.75,978.512 1996.4,665.371 L 2085.67,665.371 C 2150.3,978.512 2131.1,1519.93 2131.1,1519.93 L 2175.75,1551.82 C 2207.6,1577.34 2185.2,1618.9 2185.2,1618.9 2343.07,1677.46 2455.57,1829.42 2455.57,2007.66 2455.57,2236.6 2269.97,2422.19 2041.04,2422.19"
         inkscape:connector-curvature="0" /><path
         id="path30"
         style="fill:#ffffff;fill-opacity:1;fill-rule:nonzero;stroke:none"
         d="M 2383.48,2007.94 C 2383.48,1818.82 2230.16,1665.5 2041.04,1665.5 1851.89,1665.5 1698.58,1818.82 1698.58,2007.94 1698.58,2197.06 1851.89,2350.38 2041.04,2350.38 2230.16,2350.38 2383.48,2197.06 2383.48,2007.94"
         inkscape:connector-curvature="0" /></g></g></svg>