<!--

    Licensed to the Apache Software Foundation (ASF) under one or more
    contributor license agreements.  See the NOTICE file distributed with
    this work for additional information regarding copyright ownership.
    The ASF licenses this file to You under the Apache License, Version 2.0
    (the "License"); you may not use this file except in compliance with
    the License.  You may obtain a copy of the License at

        http://www.apache.org/licenses/LICENSE-2.0

    Unless required by applicable law or agreed to in writing, software
    distributed under the License is distributed on an "AS IS" BASIS,
    WITHOUT WARRANTIES OR CONDITIONS OF ANY KIND, either express or implied.
    See the License for the specific language governing permissions and
    limitations under the License.

-->
<?xml version="1.0" encoding="UTF-8" standalone="no"?>
<!DOCTYPE svg PUBLIC "-//W3C//DTD SVG 1.1//EN" "http://www.w3.org/Graphics/SVG/1.1/DTD/svg11.dtd">
<svg width="100%" height="100%" viewBox="0 0 886 540" version="1.1" xmlns="http://www.w3.org/2000/svg" xmlns:xlink="http://www.w3.org/1999/xlink" xml:space="preserve" xmlns:serif="http://www.serif.com/" style="fill-rule:evenodd;clip-rule:evenodd;">
    <g id="picture" transform="matrix(1.97717,0,0,1.97717,-147.142,-489.518)">
        <g id="Clip">
            <clipPath id="_clip1">
                <path d="M297.97,254.996C273.468,254.997 253.607,274.858 253.607,299.36C253.619,317.891 265.152,334.462 282.523,340.916L282.523,346.591L288.259,352.332L287.6,394.16L137.951,394.066C135.58,394.06 133.527,392.333 133.527,392.333C131.284,390.066 135.039,380.695 135.039,380.695L137.868,374.66C139.211,371.654 139.703,371.516 140.487,370.071C137.303,370.36 135.513,370.734 133.317,371.316C126.643,373.202 123.34,374.49 115.656,377.938C108.117,381.52 104.99,382.986 99.927,386.204C91.842,390.891 88.02,393.942 81.778,397.803C82.236,398.192 82.717,398.495 83.218,398.76C88.196,401.969 92.062,404.829 99.091,408.903C104.154,412.121 107.281,413.587 114.82,417.169C122.504,420.617 125.807,421.905 132.481,423.791C134.677,424.373 136.467,424.741 139.651,425.031C138.867,423.585 138.375,423.454 137.032,420.447L134.203,414.412C134.203,414.412 130.448,405.041 132.691,402.774C132.691,402.774 133.696,401.946 135.1,401.435C135.897,401.288 136.737,401.163 137.586,401.041L180.631,401.013L288.22,401.329L288.625,413.199L290.285,430.722L291.31,441.949L303.268,441.944L304.265,431.015L305.92,413.138L306.358,401.329L468.874,402.187L490.145,402.879C494.975,403.281 499.672,404.135 503.936,405.309L511.443,407.518C512.94,406.194 513.677,405.024 514.095,403.543C514.679,401.605 514.607,399.411 514.627,397.758C514.559,396.193 514.571,393.983 514.278,392.504C513.82,391.062 513.128,389.853 511.631,388.528L504.124,390.737C500.654,391.714 495.86,392.76 490.327,393.162L468.807,394.264L306.358,394.264L306.286,352.448L312.027,347.265L312.021,341.031C329.594,334.697 342.309,318.038 342.333,299.359C342.333,274.857 322.471,254.996 297.97,254.996L297.97,254.996ZM297.865,262.941C322.818,263.355 334.646,283.286 334.433,299.564C334.19,318.077 318.588,335.379 298.191,336C278.078,336 261.773,319.695 261.773,299.581C261.773,279.467 277.751,262.941 297.865,262.941Z"/>
            </clipPath>
            <g clip-path="url(#_clip1)">
                <path id="path27" d="M297.97,254.996C273.468,254.997 253.607,274.858 253.607,299.36C253.619,317.891 265.152,334.462 282.523,340.916L282.523,346.591L288.259,352.332L287.6,394.16L137.951,394.066C135.58,394.06 133.527,392.333 133.527,392.333C131.284,390.066 135.039,380.695 135.039,380.695L137.868,374.66C139.211,371.654 139.703,371.516 140.487,370.071C137.303,370.36 135.513,370.734 133.317,371.316C126.643,373.202 123.34,374.49 115.656,377.938C108.117,381.52 104.99,382.986 99.927,386.204C91.842,390.891 88.02,393.942 81.778,397.803C82.236,398.192 82.717,398.495 83.218,398.76C88.196,401.969 92.062,404.829 99.091,408.903C104.154,412.121 107.281,413.587 114.82,417.169C122.504,420.617 125.807,421.905 132.481,423.791C134.677,424.373 136.467,424.741 139.651,425.031C138.867,423.585 138.375,423.454 137.032,420.447L134.203,414.412C134.203,414.412 130.448,405.041 132.691,402.774C132.691,402.774 133.696,401.946 135.1,401.435C135.897,401.288 136.737,401.163 137.586,401.041L180.631,401.013L288.22,401.329L288.625,413.199L290.285,430.722L291.31,441.949L303.268,441.944L304.265,431.015L305.92,413.138L306.358,401.329L468.874,402.187L490.145,402.879C494.975,403.281 499.672,404.135 503.936,405.309L511.443,407.518C512.94,406.194 513.677,405.024 514.095,403.543C514.679,401.605 514.607,399.411 514.627,397.758C514.559,396.193 514.571,393.983 514.278,392.504C513.82,391.062 513.128,389.853 511.631,388.528L504.124,390.737C500.654,391.714 495.86,392.76 490.327,393.162L468.807,394.264L306.358,394.264L306.286,352.448L312.027,347.265L312.021,341.031C329.594,334.697 342.309,318.038 342.333,299.359C342.333,274.857 322.471,254.996 297.97,254.996L297.97,254.996ZM297.865,262.941C322.818,263.355 334.646,283.286 334.433,299.564C334.19,318.077 318.588,335.379 298.191,336C278.078,336 261.773,319.695 261.773,299.581C261.773,279.467 277.751,262.941 297.865,262.941Z" style="fill-opacity:0.997;fill-rule:nonzero;"/>
                <g id="path21-0-4" transform="matrix(0.264583,0,0,0.264583,81.1171,254.995)">
                    <path d="M819.611,0C727.007,0.001 651.936,75.072 651.935,167.676C651.982,237.717 695.558,300.35 761.213,324.744L761.213,346.192L782.905,367.884L780.402,525.971L214.802,525.622C205.842,525.599 198.087,519.067 198.087,519.067C189.61,510.501 203.796,475.08 203.796,475.08L214.492,452.275C219.57,440.911 221.437,440.404 224.397,434.941C212.364,436.034 205.586,437.436 197.285,439.636C172.059,446.763 159.591,451.629 130.549,464.66C102.058,478.2 90.23,483.739 71.093,495.902C40.535,513.618 26.081,525.15 2.491,539.74C4.219,541.212 6.05,542.374 7.945,543.377C26.758,555.505 41.368,566.301 67.932,581.7C87.069,593.863 98.896,599.408 127.387,612.948C156.43,625.979 168.898,630.846 194.123,637.972C202.425,640.172 209.202,641.569 221.235,642.662C218.275,637.199 216.409,636.692 211.331,625.327L200.634,602.528C200.634,602.528 186.449,567.101 194.926,558.536C194.926,558.536 198.721,555.396 204.028,553.465C207.041,552.91 210.229,552.44 213.434,551.981L376.122,551.881L782.755,553.082L784.289,597.933L790.562,664.16L794.421,706.596L839.631,706.579L843.385,665.283L849.641,597.711L851.313,553.082L1465.54,556.31L1545.93,558.945C1564.18,560.467 1581.95,563.687 1598.07,568.124L1626.43,576.468C1632.09,571.463 1634.86,567.043 1636.44,561.448C1638.65,554.121 1638.38,545.84 1638.46,539.59C1638.2,533.675 1638.25,525.305 1637.15,519.714C1635.42,514.266 1632.79,509.699 1627.14,504.694L1598.77,513.037C1585.65,516.727 1567.54,520.694 1546.63,522.216L1465.3,526.385L851.313,526.385L851.031,368.329L872.73,348.743L872.71,325.182C939.126,301.239 987.188,238.273 987.28,167.674C987.279,75.07 912.216,0.001 819.611,0ZM819.204,30.034C913.517,31.598 958.212,106.939 957.406,168.463C956.488,238.432 897.538,303.812 820.447,306.158C744.427,306.159 682.801,244.532 682.801,168.512C682.801,92.492 743.184,30.034 819.204,30.034Z" style="fill:rgb(35,31,32);fill-opacity:0.997;fill-rule:nonzero;"/>
                </g>
            </g>
        </g>
        <path id="path57" d="M149.207,465.01L178.563,465.12L157.311,503.503L177.349,503.486L177.238,510.037L146.227,510.083L167.437,471.485L149.097,471.485L149.207,465.01Z" style="fill:rgb(35,31,32);stroke:rgb(35,31,32);stroke-width:0.75px;"/>
        <path id="path59" d="M210.346,464.955L216.858,464.955L216.852,510.096L210.385,510.096L210.346,464.955Z" style="fill:rgb(35,31,32);stroke:rgb(35,31,32);stroke-width:0.75px;"/>
        <path id="path63" d="M305.477,465.01L311.878,464.955L311.849,482.502L330.417,464.964L339.703,465.042L316.894,486.758L339.716,510.07L330.458,510.07L311.794,490.834L311.844,510.173L305.476,510.173L305.477,465.01Z" style="fill:rgb(35,31,32);stroke:rgb(35,31,32);stroke-width:0.75px;"/>
        <path id="path65" d="M370.424,465.065L376.935,464.955L376.935,510.037L370.479,510.092L370.424,465.065Z" style="fill:rgb(35,31,32);stroke:rgb(35,31,32);stroke-width:0.75px;"/>
        <path id="path67" d="M412.085,463.354L443.865,495.676L444.167,464.554L450.536,464.6L450.591,511.647L418.448,479.384L418.41,510.203L411.917,510.092L412.085,463.354Z" style="fill:rgb(35,31,32);stroke:rgb(35,31,32);stroke-width:0.75px;"/>
        <g transform="matrix(1,0,0,1,74.4208,247.586)">
            <path d="M177.973,217.369C182.718,217.443 191.382,217.424 191.382,217.424C193.696,217.664 196.098,218.787 198.043,220.24C200.2,222.16 201.466,223.986 201.964,226.113C202.357,229.05 202.345,231.498 202.061,234.309C201.315,237.299 200.169,239.131 198.494,240.957C196.409,242.695 194.643,243.486 192.082,244.063C189.854,244.298 186.743,244.258 184.239,244.274L184.395,262.758L177.903,262.758L177.973,217.369ZM184.216,237.735L184.299,223.867L189.223,223.85C191.892,224.115 193.475,224.75 194.527,225.976C195.598,227.535 195.875,228.514 195.906,230.28C196.049,231.351 195.903,232.752 195.024,234.64C194.256,235.714 194.181,236.029 192.857,236.798C191.301,237.44 192.256,237.323 189.009,237.73L184.216,237.735Z" style="fill:rgb(35,31,32);stroke:rgb(35,31,32);stroke-width:0.75px;"/>
        </g>
    </g>
</svg>
