<?xml version="1.0" encoding="UTF-8" standalone="no"?>
<!-- Created with Inkscape (http://www.inkscape.org/) -->

<svg
   xmlns:dc="http://purl.org/dc/elements/1.1/"
   xmlns:cc="http://creativecommons.org/ns#"
   xmlns:rdf="http://www.w3.org/1999/02/22-rdf-syntax-ns#"
   xmlns:svg="http://www.w3.org/2000/svg"
   xmlns="http://www.w3.org/2000/svg"
   xmlns:sodipodi="http://sodipodi.sourceforge.net/DTD/sodipodi-0.dtd"
   xmlns:inkscape="http://www.inkscape.org/namespaces/inkscape"
   version="1.1"
   id="svg3835"
   width="90"
   height="85"
   viewBox="0 0 90 85"
   sodipodi:docname="path3763.png"
   inkscape:version="0.92.2 5c3e80d, 2017-08-06">
  <metadata
     id="metadata3841">
    <rdf:RDF>
      <cc:Work
         rdf:about="">
        <dc:format>image/svg+xml</dc:format>
        <dc:type
           rdf:resource="http://purl.org/dc/dcmitype/StillImage" />
        <dc:title></dc:title>
      </cc:Work>
    </rdf:RDF>
  </metadata>
  <defs
     id="defs3839" />
  <sodipodi:namedview
     pagecolor="#ffffff"
     bordercolor="#666666"
     borderopacity="1"
     objecttolerance="10"
     gridtolerance="10"
     guidetolerance="10"
     inkscape:pageopacity="0"
     inkscape:pageshadow="2"
     inkscape:window-width="1223"
     inkscape:window-height="801"
     id="namedview3837"
     showgrid="false"
     inkscape:zoom="2.7764706"
     inkscape:cx="45"
     inkscape:cy="42.5"
     inkscape:window-x="0"
     inkscape:window-y="0"
     inkscape:window-maximized="0"
     inkscape:current-layer="svg3835" />
  <path
     style="fill:#000000"
     d="m 48.313211,83.11017 c -0.29889,-1.2375 -0.86051,-5.56013 -1.24805,-9.60584 l -0.70461,-7.35585 -10.82503,0.37052 c -12.94797,0.44318 -13.91239,1.02523 -11.57176,6.9839 0.91001,2.31666 1.46455,4.40212 1.23232,4.63435 C 23.954551,79.37878 6.2346501,71.35691 1.6398301,67.47324 L -0.86016993,65.36017 1.6398301,63.21685 c 2.90605,-2.49143 17.1538199,-9.453935 21.4144209,-10.464658 2.58778,-0.613886 2.82617,-0.478459 2.12699,1.208301 -2.88461,6.959087 -2.96674,7.374357 -1.70791,8.635707 0.8173,0.81894 5.15064,1.38402 12.30761,1.60493 l 11.04617,0.34096 -0.34364,-10.758722 c -0.23835,-7.462315 -0.72663,-10.886053 -1.59364,-11.174295 -0.6875,-0.228564 -1.25,-1.023886 -1.25,-1.767383 0,-0.743497 -1.74977,-2.609568 -3.88837,-4.146825 -7.76232,-5.579656 -10.89938,-14.387721 -8.1218,-22.803885 1.5695,-4.7556345 6.58094,-10.4535215 10.71243,-12.1797655 3.86953,-1.61679201 12.07368,-1.76433301 15.98264,-0.287426 6.36346,2.40428 12.24845,10.9352815 12.29314,17.8203605 0.0416,6.413534 -2.1128,11.051843 -7.29939,15.715032 -7.40073,6.653891 -8.67865,9.679117 -8.67865,20.544963 v 9.151226 l 9.75,-0.68138 c 5.3625,-0.37475 12.77702,-1.14921 16.47672,-1.721 3.69969,-0.5718 7.18719,-0.75504 7.75,-0.40721 1.21947,0.75367 1.3767,6.17793 0.20015,6.90508 -0.45272,0.27979 -6.61723,-0.16548 -13.69891,-0.98949 -7.08168,-0.82402 -14.47377,-1.36389 -16.42687,-1.19971 -3.54897,0.29833 -3.55152,0.30209 -4.26681,6.29851 -1.31974,11.06351 -1.74737,12.5 -3.72119,12.5 -1.08697,0 -2.06977,-0.92534 -2.38971,-2.25 z m 12.26807,-49.708313 c 9.68436,-6.89587 8.57148,-22.012933 -2.06043,-27.9884005 -13.50912,-7.592548 -29.39051,6.9638455 -23.10372,21.1761635 1.79,4.046604 5.26174,7.473059 9.2227,9.102408 3.40461,1.400492 12.61704,0.07702 15.94145,-2.290171 z"
     id="path3845"
     inkscape:connector-curvature="0" />
</svg>
